<?xml version="1.0" encoding="UTF-8"?>
<svg width="48px" height="48px" viewBox="0 0 48 48" version="1.1" xmlns="http://www.w3.org/2000/svg" xmlns:xlink="http://www.w3.org/1999/xlink">
    <title>live-reactions</title>
    <g id="Icons" stroke="none" stroke-width="1" fill="none" fill-rule="evenodd">
        <g id="live-reactions">
            <circle id="Oval" fill="#E7F9F0" cx="24" cy="24" r="24"></circle>
            <g id="streamline-icon-user-live@24x24" transform="translate(15.000000, 12.000000)" fill="#0FC46D" fill-rule="nonzero">
                <path d="M6.75,17 C6.33578644,17 6,17.3357864 6,17.75 L6,22.75 C6,23.1642136 6.33578644,23.5 6.75,23.5 C7.16421356,23.5 7.5,23.1642136 7.5,22.75 L7.5,17.75 C7.5,17.3357864 7.16421356,17 6.75,17 Z" id="Path"></path>
                <path d="M12,17 C11.5857864,17 11.25,17.3357864 11.25,17.75 L11.25,19.45 C11.2420557,19.8961047 11.1515279,20.3368767 10.983,20.75 C10.9456297,20.8460913 10.8531022,20.9093854 10.75,20.9093854 C10.6468978,20.9093854 10.5543703,20.8460913 10.517,20.75 C10.3484721,20.3368767 10.2579443,19.8961047 10.25,19.45 L10.25,17.75 C10.25,17.3357864 9.91421355,17 9.5,17 C9.08578645,17 8.75,17.3357864 8.75,17.75 L8.75,19.45 C8.84021864,20.7964667 9.31810114,22.0880692 10.126,23.169 C10.2651049,23.3776163 10.4992592,23.5029183 10.75,23.5029183 C11.0007408,23.5029183 11.2348951,23.3776163 11.374,23.169 C12.1818989,22.0880692 12.6597814,20.7964667 12.75,19.45 L12.75,17.75 C12.75,17.3357864 12.4142136,17 12,17 Z" id="Path"></path>
                <path d="M4.5,22.75 C4.5,22.3357864 4.16421356,22 3.75,22 L2.75,22 C2.61192881,22 2.5,21.8880712 2.5,21.75 L2.5,17.75 C2.5,17.3357864 2.16421356,17 1.75,17 C1.33578644,17 1,17.3357864 1,17.75 L1,21.75 C1.00110216,22.7160414 1.78395859,23.4988978 2.75,23.5 L3.75,23.5 C3.94891237,23.5 4.1396778,23.4209824 4.28033009,23.2803301 C4.42098237,23.1396778 4.5,22.9489124 4.5,22.75 Z" id="Path"></path>
                <path d="M15.5,18.75 C15.5,18.6119288 15.6119288,18.5 15.75,18.5 L16.75,18.5 C17.1642136,18.5 17.5,18.1642136 17.5,17.75 C17.5,17.3357864 17.1642136,17 16.75,17 L15.75,17 C14.7839586,17.0011022 14.0011022,17.7839586 14,18.75 L14,21.75 C14.0011022,22.7160414 14.7839586,23.4988978 15.75,23.5 L16.75,23.5 C17.1642136,23.5 17.5,23.1642136 17.5,22.75 C17.5,22.3357864 17.1642136,22 16.75,22 L15.75,22 C15.6119288,22 15.5,21.8880712 15.5,21.75 C15.5,21.6119288 15.6119288,21.5 15.75,21.5 L16.75,21.5 C17.1642136,21.5 17.5,21.1642136 17.5,20.75 C17.5,20.3357864 17.1642136,20 16.75,20 L15.75,20 C15.6119288,20 15.5,19.8880712 15.5,19.75 L15.5,18.75 Z" id="Path"></path>
                <path d="M6.65,9.022 C6.65,9.86621861 7.10038522,10.6463088 7.83149998,11.0684181 C8.56261473,11.4905274 9.46338527,11.4905274 10.1945,11.0684181 C10.9256148,10.6463088 11.376,9.86621861 11.376,9.022 C11.376,8.17778139 10.9256148,7.39769122 10.1945,6.97558191 C9.46338527,6.5534726 8.56261473,6.5534726 7.83149998,6.97558191 C7.10038522,7.39769122 6.65,8.17778139 6.65,9.022 L6.65,9.022 Z" id="Path"></path>
                <path d="M9.013,12.243 C7.33649924,12.2436452 5.8522037,13.3266596 5.34,14.923 C5.31479747,14.9990732 5.32823017,15.0826545 5.376,15.147 C5.42310942,15.2100762 5.49727342,15.2471582 5.576,15.2470005 L12.446,15.2470005 C12.5260062,15.2470491 12.6012031,15.2088033 12.648284,15.1441165 C12.6953649,15.0794297 12.7086419,14.9961168 12.684,14.92 C12.1701589,13.3261315 10.6876478,12.2450413 9.013,12.243 L9.013,12.243 Z" id="Path"></path>
                <path d="M9,3.49999975 C7.0637625,3.49941844 5.26985048,4.51699609 4.27680162,6.17918439 C3.28375277,7.8413727 3.23787125,9.9032843 4.156,11.608 C4.28772796,11.8500416 4.54143488,12.0005002 4.817,11.9999998 C4.94104771,12.0005648 5.06320422,11.9695956 5.172,11.91 C5.53485179,11.7123355 5.66908956,11.2581644 5.472,10.895 C4.56708846,9.21207775 4.97881956,7.12413813 6.45487275,5.91073006 C7.93092595,4.69732198 10.0590741,4.69732198 11.5351272,5.91073006 C13.0111804,7.12413813 13.4229115,9.21207775 12.518,10.895 C12.3378967,11.2575868 12.4776192,11.6976755 12.8338904,11.8899703 C13.1901615,12.082265 13.6347351,11.9575458 13.839,11.608 C14.7567064,9.90406906 14.711317,7.84320459 13.7194806,6.18133027 C12.7276442,4.51945595 10.9353461,3.50117797 9,3.49999975 L9,3.49999975 Z" id="Path" opacity="0.499279204"></path>
                <path d="M9,0.5 C4.30786402,0.505510441 0.505510441,4.30786402 0.499953101,9 C0.493707048,10.88646 1.12087501,12.7204245 2.281,14.208 C2.53505099,14.5355048 3.00649514,14.595051 3.33399998,14.341 C3.66150483,14.086949 3.72105097,13.6155049 3.467,13.288 C2.51124191,12.0634765 1.99460179,10.5533519 2,9 C2.00000008,5.13400681 5.13400681,2 9,2 C12.8659932,2 15.9999999,5.13400681 16,9 C16.0054839,10.5541423 15.4884714,12.0650303 14.532,13.29 C14.3586032,13.50077 14.3133918,13.7890973 14.4139525,14.0428254 C14.5145132,14.2965536 14.7449699,14.4756246 15.0156771,14.5103817 C15.2863843,14.5451388 15.5546035,14.4300945 15.716,14.21 C16.8783154,12.7226514 17.5066614,10.8876278 17.5000524,9 C17.4944896,4.30786402 13.692136,0.505510441 9,0.5 Z" id="Path" opacity="0.499279204"></path>
            </g>
        </g>
    </g>
</svg>