<?xml version="1.0" encoding="UTF-8"?>
<svg width="48px" height="48px" viewBox="0 0 48 48" version="1.1" xmlns="http://www.w3.org/2000/svg" xmlns:xlink="http://www.w3.org/1999/xlink">
    <title>results-are-real</title>
    <g id="Icons" stroke="none" stroke-width="1" fill="none" fill-rule="evenodd">
        <g id="results-are-real">
            <circle id="Oval" fill="#E7F9F0" cx="24" cy="24" r="24"></circle>
            <g id="streamline-icon-organic-seedling-growth@24x24" transform="translate(12.000000, 11.000000)" fill="#0FC46D" fill-rule="nonzero">
                <path d="M2,12.5000369 L2.018,12.5000369 C9.218,12.374 13.153,9.474 14.348,3.408 C14.3956015,3.17479823 14.6009901,3.00747552 14.839,3.008 L15.5,3.008 C15.7025089,3.00836232 15.8852385,2.88653713 15.9627843,2.69946329 C16.0403301,2.51238944 15.9973768,2.29701419 15.854,2.154 L13.854,0.154 C13.6587501,-0.0411909692 13.3422499,-0.0411909692 13.147,0.154 L11.147,2.154 C11.0093423,2.29755559 10.9698583,2.50904861 11.0464475,2.69260229 C11.1230367,2.87615596 11.3011332,2.99686186 11.5,3 L11.769,3 C11.9223986,2.99996212 12.0673256,3.07034123 12.1621502,3.19092072 C12.2569748,3.31150021 12.2912021,3.46893445 12.255,3.618 C11.122,8.31 7.982,10.39 1.983,10.5 C1.43071526,10.5046944 0.986805595,10.9562153 0.991463122,11.5085 C0.996194435,12.0607847 1.44771526,12.5046944 2,12.5000369 L2,12.5000369 Z" id="Path"></path>
                <path d="M23.746,21.5 L19,21.5 C18.7238576,21.5 18.5,21.2761424 18.5,21 L18.5,9.282 C18.5007253,8.89729361 18.5984002,8.51897515 18.784,8.182 C19.5744356,7.1418653 20.6318902,6.33529699 21.844,5.848 C22.0152831,5.78658347 22.2064092,5.82306672 22.3430261,5.943257 C22.479643,6.06344728 22.5401801,6.24836747 22.501087,6.42607965 C22.4619939,6.60379184 22.3294432,6.74623665 22.155,6.798 C21.1007948,7.24148677 20.184198,7.95853821 19.5,8.875 C19.45373,8.93040734 19.4336683,9.00311039 19.4449759,9.0744057 C19.4562835,9.14570102 19.4978565,9.20862866 19.559,9.247 C19.9019821,9.46138065 20.2995771,9.57215165 20.704,9.566 C21.5119472,9.53157789 22.2856667,9.23017897 22.904,8.709 C24.575965,6.98733677 25.2949043,4.55385997 24.827,2.2 C24.784896,2.05431387 24.6789485,1.93560911 24.5389655,1.87728285 C24.3989825,1.8189566 24.240093,1.82731263 24.107,1.9 C23.2769345,2.32564466 22.3649103,2.56746408 21.433,2.609 C19.654,2.799 17.662,3.356 17.395,5.124 C17.3445289,5.46963114 17.383078,5.8224245 17.507,6.149 C17.5660802,6.3099975 17.5385264,6.49004083 17.434,6.626 C16.8220935,7.37511801 16.4916593,8.31476797 16.5,9.282 L16.5,13.39 C16.4998404,13.4873922 16.4431358,13.5758265 16.354695,13.6166123 C16.2662542,13.6573981 16.1621778,13.6431103 16.088,13.58 C15.9917502,13.5018251 15.9317528,13.3876132 15.922,13.264 C15.9101286,13.1457384 15.8832458,13.0294699 15.842,12.918 C15.5185023,12.2260585 14.8788916,11.7345093 14.127,11.6 C13.3383723,11.432364 12.5174934,11.5069577 11.772,11.814 C11.1292085,12.0557649 10.4423413,12.158028 9.757,12.114 C9.60670122,12.0953842 9.45620403,12.1470254 9.349,12.254 C9.24107772,12.36011 9.18702682,12.5093934 9.202,12.66 C9.56377766,14.5506489 10.8314671,16.142831 12.593,16.919 C12.9499272,17.0268908 13.3201641,17.0844458 13.693,17.09 C14.1856122,17.1333289 14.6721555,16.9565039 15.022,16.607 C15.0749,16.5511799 15.0989106,16.4739766 15.087,16.398 C15.0751349,16.3228204 15.0299275,16.2570306 14.964,16.219 C14.1687885,15.8029311 13.3096125,15.5227356 12.422,15.39 C12.1527225,15.3454418 11.9689323,15.0931713 12.0090598,14.823198 C12.0491873,14.5532247 12.2984038,14.3653141 12.569,14.401 C13.9536434,14.4902945 15.2581715,15.081581 16.238,16.064 C16.4054406,16.2884528 16.4959297,16.5609725 16.496,16.841 L16.496,21 C16.496,21.2761424 16.2721424,21.5 15.996,21.5 L2.25,21.5 C1.55964406,21.5 1,22.0596441 1,22.75 C1,23.4403559 1.55964406,24 2.25,24 L23.75,24 C24.4403559,24 25,23.4403559 25,22.75 C25,22.0596441 24.4403559,21.5 23.75,21.5 L23.746,21.5 Z" id="Path" fill-opacity="0.497951267"></path>
            </g>
        </g>
    </g>
</svg>