<?xml version="1.0" encoding="UTF-8"?>
<svg width="48px" height="48px" viewBox="0 0 48 48" version="1.1" xmlns="http://www.w3.org/2000/svg" xmlns:xlink="http://www.w3.org/1999/xlink">
    <title>stories-viewing</title>
    <g id="Icons" stroke="none" stroke-width="1" fill="none" fill-rule="evenodd">
        <g id="stories-viewing">
            <circle id="Oval" fill="#FFECED" cx="24" cy="24" r="24"></circle>
            <g id="streamline-icon-view-circle@24x24" transform="translate(12.000000, 12.000000)" fill="#FF4350" fill-rule="nonzero">
                <path d="M12,0 C5.372583,0 0,5.372583 0,12 C0,18.627417 5.372583,24 12,24 C18.627417,24 24,18.627417 24,12 C23.9928352,5.37555305 18.624447,0.00716484761 12,0 Z M12,17 C6.721,17 3.822,12.458 3.7,12.265 C3.59866509,12.1028646 3.59866509,11.8971354 3.7,11.735 C3.822,11.542 6.721,7 12,7 C17.279,7 20.178,11.542 20.3,11.735 C20.4013349,11.8971354 20.4013349,12.1028646 20.3,12.265 C20.178,12.458 17.279,17 12,17 Z" id="Shape" opacity="0.50109282"></path>
                <path d="M16,12 C16,9.790861 14.209139,8 12,8 C9.790861,8 8,9.790861 8,12 C8,14.209139 9.790861,16 12,16 C14.209139,16 16,14.209139 16,12 Z M12,13.5 C11.1715729,13.5 10.5,12.8284271 10.5,12 C10.5,11.1715729 11.1715729,10.5 12,10.5 C12.8284271,10.5 13.5,11.1715729 13.5,12 C13.5,12.8284271 12.8284271,13.5 12,13.5 Z" id="Shape"></path>
            </g>
        </g>
    </g>
</svg>