<?xml version="1.0" encoding="UTF-8"?>
<svg width="48px" height="48px" viewBox="0 0 48 48" version="1.1" xmlns="http://www.w3.org/2000/svg" xmlns:xlink="http://www.w3.org/1999/xlink">
    <title>auto-blacklist</title>
    <g id="Icons" stroke="none" stroke-width="1" fill="none" fill-rule="evenodd">
        <g id="auto-blacklist">
            <circle id="Oval" fill="#E6E6FA" cx="24" cy="24" r="24"></circle>
            <g id="streamline-icon-single-neutral-actions-block@24x24" transform="translate(11.000000, 12.000000)" fill="#4443FF" fill-rule="nonzero">
                <path d="M11.273,12.385 C11.365806,12.2740114 11.4059872,12.1282647 11.3831671,11.9853988 C11.3603469,11.842533 11.2767627,11.7165555 11.154,11.64 C9.97071946,10.8977918 8.60278846,10.5027966 7.206,10.5 C3.89479766,10.5150662 0.98057904,12.6878525 0.021,15.857 C-0.024161953,16.008313 0.004808892,16.1720677 0.0991441018,16.2987014 C0.193479312,16.4253351 0.342091092,16.5 0.5,16.5 L9.059,16.5 C9.30149973,16.5003903 9.50932031,16.3267147 9.552,16.088 C9.79321072,14.7247952 10.3864769,13.4482905 11.273,12.385 Z" id="Path" fill-opacity="0.5"></path>
                <path d="M2.25,4.75 C2.25,6.44701157 3.15534485,8.01511494 4.62499998,8.86362073 C6.0946551,9.71212652 7.9053449,9.71212652 9.37500002,8.86362073 C10.8446551,8.01511494 11.75,6.44701157 11.75,4.75 C11.75,3.05298843 10.8446551,1.48488506 9.37500002,0.636379273 C7.9053449,-0.212126519 6.0946551,-0.212126519 4.62499998,0.636379273 C3.15534485,1.48488506 2.25,3.05298843 2.25,4.75 Z" id="Path" fill-opacity="0.5"></path>
                <path d="M19,11.17 C16.8049199,10.6544618 14.4993337,11.3107761 12.9048423,12.9050639 C11.3103508,14.4993517 10.6537421,16.804854 11.169,19 C11.7174231,21.405154 13.5950732,23.2835815 16,23.833 C16.4892791,23.9437276 16.9893482,23.999738 17.491,24.0000263 C19.4819987,24.0056517 21.36577,23.0985002 22.6027522,21.5383775 C23.8397345,19.9782548 24.2934711,17.9372646 23.834,16 C23.2838641,13.5953084 21.4051462,11.7181451 19,11.17 Z M15.73,21.65 C15.5797151,21.5829494 15.4720462,21.4462424 15.4420809,21.2844295 C15.4121155,21.1226166 15.4636911,20.9564198 15.58,20.84 L20.841,15.578 C20.9574198,15.4616911 21.1236166,15.4101155 21.2854295,15.4400809 C21.4472424,15.4700462 21.5839494,15.5777151 21.651,15.728 C22.3692811,17.4224276 21.987741,19.3832081 20.686503,20.6846659 C19.3852649,21.9861237 17.4245489,22.367995 15.73,21.65 L15.73,21.65 Z M14.32,14.319 C15.6390551,13.0541579 17.5755859,12.6768609 19.273,13.354 C19.4239741,13.4205366 19.5324065,13.5572669 19.5627994,13.7194291 C19.5931923,13.8815912 19.5416328,14.0483077 19.425,14.165 L14.181,19.408 C14.0624058,19.5265731 13.8922658,19.5777953 13.7279211,19.5444033 C13.5635765,19.5110114 13.426917,19.397453 13.364,19.242 C12.6147447,17.5633505 12.9969361,15.5952247 14.32,14.319 L14.32,14.319 Z" id="Shape"></path>
            </g>
        </g>
    </g>
</svg>