<?xml version="1.0" encoding="UTF-8"?>
<svg width="48px" height="48px" viewBox="0 0 48 48" version="1.1" xmlns="http://www.w3.org/2000/svg" xmlns:xlink="http://www.w3.org/1999/xlink">
    <title>comment-liking</title>
    <g id="Icons" stroke="none" stroke-width="1" fill="none" fill-rule="evenodd">
        <g id="comment-liking">
            <circle id="Oval" fill="#E7F9F0" cx="24" cy="24" r="24"></circle>
            <g id="streamline-icon-like-chat@24x24" transform="translate(12.000000, 14.000000)" fill="#0FC46D" fill-rule="nonzero">
                <path d="M22.048,0 L1.952,0 C0.874397131,0.00110240789 0.00110240789,0.874397131 0,1.952 L0,16.238 C0.00110240789,17.3156029 0.874397131,18.1888976 1.952,18.19 L6.667,18.19 L6.667,21 C6.66708635,21.4043959 6.9107275,21.7689341 7.28434544,21.923678 C7.65796338,22.0784219 8.08800575,21.9929079 8.374,21.707 L11.89,18.19 L22.048,18.19 C23.1256029,18.1888976 23.9988976,17.3156029 24,16.238 L24,1.952 C23.9988976,0.874397131 23.1256029,0.00110240789 22.048,0 Z M22,15.69 C22,15.9661424 21.7761424,16.19 21.5,16.19 L11.476,16.19 C11.2108052,16.1900566 10.9564927,16.2954506 10.769,16.483 L8.669,18.583 L8.669,17.183 C8.669,16.6307153 8.22128475,16.183 7.669,16.183 L2.5,16.234 C2.36652756,16.2353348 2.23806232,16.1832462 2.14320993,16.089333 C2.04835755,15.9954197 1.99499333,15.8674791 1.995,15.734 L1.954,2.5 C1.954,2.22385763 2.17785763,2 2.454,2 L21.5,2 C21.7761424,2 22,2.22385763 22,2.5 L22,15.69 Z" id="Shape" opacity="0.50281343"></path>
                <path d="M6.452,13 L7.452,13 C7.69966731,13.0246747 7.92170686,12.847043 7.952,12.6 L7.952,7.4 C7.92170686,7.15295697 7.69966731,6.97532533 7.452,7 L6.452,7 C6.20433269,6.97532533 5.98229314,7.15295697 5.952,7.4 L5.952,12.6 C5.98229314,12.847043 6.20433269,13.0246747 6.452,13 L6.452,13 Z" id="Path"></path>
                <path d="M9.246,12.34 L11.6,13.407 C11.9788541,13.5706747 12.3873024,13.6547469 12.8,13.6540049 L15.477,13.6540049 C16.0566568,13.6542498 16.5712681,13.283101 16.754,12.733 L17.882,9.349 C18.0199687,8.93860093 17.9522284,8.48689834 17.7,8.135 C17.3923197,7.75661558 16.938999,7.52595962 16.452,7.5 L14.952,7.5 L14.952,4.75 C14.952,4.05964406 14.3923559,3.5 13.702,3.5 C13.0116441,3.5 12.452,4.05964406 12.452,4.75 L12.452,5 C12.452,6.59 11.022,7.154 9.798,7.154 L9.452,7.154 C9.17585763,7.154 8.952,7.37785763 8.952,7.654 L8.952,11.885 C8.95223235,12.0812158 9.06721116,12.2591592 9.246,12.34 Z" id="Path"></path>
            </g>
        </g>
    </g>
</svg>