<?xml version="1.0" encoding="UTF-8"?>
<svg width="48px" height="48px" viewBox="0 0 48 48" version="1.1" xmlns="http://www.w3.org/2000/svg" xmlns:xlink="http://www.w3.org/1999/xlink">
    <title>compare</title>
    <g id="Icons" stroke="none" stroke-width="1" fill="none" fill-rule="evenodd">
        <g id="compare">
            <circle id="Oval" fill="#FFF7ED" cx="24" cy="24" r="24"></circle>
            <g id="streamline-icon-legal-scale-1@24x24" transform="translate(12.000000, 12.000000)" fill="#FFB544" fill-rule="nonzero">
                <path d="M24,13.086 C23.9976919,12.9525243 23.9684401,12.8208908 23.914,12.699 L21.167,6.518 C21.1385767,6.45357002 21.1385268,6.38016328 21.1668625,6.31569473 C21.1951983,6.25122619 21.249313,6.20162632 21.316,6.179 C21.781753,6.02426831 22.0663816,5.55441179 21.9878345,5.06995525 C21.9092874,4.58549871 21.4907827,4.22964432 21,4.23 L13.25,4.23 C13.1836959,4.23 13.1201074,4.20366079 13.0732233,4.1567767 C13.0263392,4.1098926 13,4.04630412 13,3.98 L13,1.75 C13,1.19771525 12.5522847,0.75 12,0.75 C11.4477153,0.75 11,1.19771525 11,1.75 L11,3.98 C11,4.04630412 10.9736608,4.1098926 10.9267767,4.1567767 C10.8798926,4.20366079 10.8163041,4.23 10.75,4.23 L3,4.23 C2.5092173,4.22964432 2.09071256,4.58549871 2.01216548,5.06995525 C1.93361839,5.55441179 2.21824697,6.02426831 2.684,6.179 C2.75107722,6.2011011 2.80561381,6.25064695 2.83403144,6.31530182 C2.86244906,6.37995668 2.86207413,6.45363769 2.833,6.518 L0.087,12.7 C0.0323469027,12.8215101 0.0027571877,12.9527932 0,13.086 L0,13.105 C0,15.5902814 2.01471863,17.605 4.5,17.605 C6.98528137,17.605 9,15.5902814 9,13.105 C8.99177051,12.9650121 8.95787372,12.8277301 8.9,12.7 L6.192,6.581 C6.15790166,6.50379354 6.16506118,6.41459428 6.21103749,6.34381495 C6.25701381,6.27303563 6.33559929,6.23023272 6.42,6.23 L10.75,6.23 C10.8880712,6.23 11,6.34192881 11,6.48 L11,21 C11,21.1380712 10.8880712,21.25 10.75,21.25 L9.081,21.25 C8.52871525,21.25 8.081,21.6977153 8.081,22.25 C8.081,22.8022847 8.52871525,23.25 9.081,23.25 L14.892,23.25 C15.4442847,23.25 15.892,22.8022847 15.892,22.25 C15.892,21.6977153 15.4442847,21.25 14.892,21.25 L13.25,21.25 C13.1119288,21.25 13,21.1380712 13,21 L13,6.48 C13,6.34192881 13.1119288,6.23 13.25,6.23 L17.58,6.23 C17.6644007,6.23023272 17.7429862,6.27303563 17.7889625,6.34381495 C17.8349388,6.41459428 17.8420983,6.50379354 17.808,6.581 L15.1,12.7 C15.0421263,12.8277301 15.0082295,12.9650121 15,13.105 C15,15.5902814 17.0147186,17.605 19.5,17.605 C21.9852814,17.605 24,15.5902814 24,13.105 L24,13.086 Z M2.813,12.3550025 C2.72749917,12.3553831 2.64773247,12.312044 2.60152751,12.2401021 C2.55532255,12.1681601 2.54908843,12.0775945 2.585,12 L4.269,8.211 C4.30910049,8.12066091 4.39866073,8.06242855 4.4975,8.06242855 C4.59633927,8.06242855 4.68589951,8.12066091 4.726,8.211 L6.406,12 C6.44009834,12.0772065 6.43293882,12.1664057 6.38696251,12.237185 C6.34098619,12.3079644 6.26240071,12.3507673 6.178,12.351 L2.813,12.3550025 Z M17.822,12.3550025 C17.7364992,12.3553831 17.6567325,12.312044 17.6105275,12.2401021 C17.5643226,12.1681601 17.5580884,12.0775945 17.594,12 L19.274,8.208 C19.3141005,8.11766091 19.4036607,8.05942855 19.5025,8.05942855 C19.6013393,8.05942855 19.6908995,8.11766091 19.731,8.208 L21.415,12 C21.4490983,12.0772065 21.4419388,12.1664057 21.3959625,12.237185 C21.3499862,12.3079644 21.2714007,12.3507673 21.187,12.351 L17.822,12.3550025 Z" id="Shape"></path>
            </g>
        </g>
    </g>
</svg>