<?xml version="1.0" encoding="UTF-8"?>
<svg width="48px" height="48px" viewBox="0 0 48 48" version="1.1" xmlns="http://www.w3.org/2000/svg" xmlns:xlink="http://www.w3.org/1999/xlink">
    <title>easy-to-set-up</title>
    <g id="Icons" stroke="none" stroke-width="1" fill="none" fill-rule="evenodd">
        <g id="easy-to-set-up">
            <circle id="Oval" fill="#FFF7ED" cx="24" cy="24" r="24"></circle>
            <g id="streamline-icon-video-game-magic-wand@24x24" transform="translate(11.000000, 12.000000)" fill="#FFB544" fill-rule="nonzero">
                <path d="M18.25,4.5 L19,4.5 C19.2761424,4.5 19.5,4.72385763 19.5,5 L19.5,5.75 C19.5,6.16421356 19.8357864,6.5 20.25,6.5 C20.6642136,6.5 21,6.16421356 21,5.75 L21,5 C21,4.72385763 21.2238576,4.5 21.5,4.5 L22.25,4.5 C22.6642136,4.5 23,4.16421356 23,3.75 C23,3.33578644 22.6642136,3 22.25,3 L21.5,3 C21.2238576,3 21,2.77614237 21,2.5 L21,1.75 C21,1.33578644 20.6642136,1 20.25,1 C19.8357864,1 19.5,1.33578644 19.5,1.75 L19.5,2.5 C19.5,2.77614237 19.2761424,3 19,3 L18.25,3 C17.8357864,3 17.5,3.33578644 17.5,3.75 C17.5,4.16421356 17.8357864,4.5 18.25,4.5 Z" id="Path" fill-opacity="0.49762347"></path>
                <path d="M4.75,16.5 L4.25,16.5 C4.11192881,16.5 4,16.3880712 4,16.25 L4,15.75 C4,15.3357864 3.66421356,15 3.25,15 C2.83578644,15 2.5,15.3357864 2.5,15.75 L2.5,16.25 C2.5,16.3880712 2.38807119,16.5 2.25,16.5 L1.75,16.5 C1.33578644,16.5 1,16.8357864 1,17.25 C1,17.6642136 1.33578644,18 1.75,18 L2.25,18 C2.38807119,18 2.5,18.1119288 2.5,18.25 L2.5,18.75 C2.5,19.1642136 2.83578644,19.5 3.25,19.5 C3.66421356,19.5 4,19.1642136 4,18.75 L4,18.25 C4,18.1119288 4.11192881,18 4.25,18 L4.75,18 C5.16421356,18 5.5,17.6642136 5.5,17.25 C5.5,16.8357864 5.16421356,16.5 4.75,16.5 Z" id="Path" fill-opacity="0.49762347"></path>
                <path d="M15.808,10.142 C15.8385048,9.65067184 15.5465854,9.19639496 15.087,9.02 L12.9,8.159 C12.7125336,8.08533165 12.5875756,7.90636968 12.583,7.705 L12.529,5.252 C12.538833,4.79010071 12.267467,4.36841542 11.843,4.186 C11.4194053,4.0110238 10.9318478,4.11385556 10.615,4.445 L9.3,5.765 C9.16465307,5.90035988 8.96390457,5.94656698 8.783,5.884 L6.6,5.128 L6.591,5.128 C6.1739781,4.99233403 5.71609949,5.10299862 5.40706744,5.41414443 C5.09803539,5.72529024 4.99049453,6.18391256 5.129,6.6 L5.884,8.785 C5.94656698,8.96590457 5.90035988,9.16665307 5.765,9.302 L4.443,10.62 C4.11142831,10.9366488 4.00889219,11.4246889 4.185,11.848 C4.37238696,12.2620025 4.78357342,12.529098 5.238,12.532 L7.705,12.587 C7.9064906,12.5910113 8.08587669,12.7155959 8.16,12.903 L9.019,15.086 C9.18763606,15.5244018 9.61029517,15.8124155 10.08,15.8090301 C10.1,15.8090301 10.121,15.8090301 10.142,15.8090301 C10.6435649,15.7883689 11.0734409,15.4439819 11.203,14.959 L11.947,12.296 C11.9940475,12.1276229 12.1256229,11.9960475 12.294,11.949 L14.958,11.204 C15.4433229,11.0743305 15.787797,10.6439405 15.808,10.142 L15.808,10.142 Z" id="Path"></path>
                <path d="M2.72,3.78 C3.01414965,4.06437105 3.48193354,4.0605282 3.77137157,3.77136296 C4.06080961,3.48219772 4.06509356,3.01441767 3.781,2.72 L2.281,1.22 C1.98685035,0.935628948 1.51906646,0.939471803 1.22962843,1.22863704 C0.940190394,1.51780228 0.935906443,1.98558233 1.22,2.28 L2.72,3.78 Z" id="Path" fill-opacity="0.49762347"></path>
                <path d="M8.75,3.5 C9.16421356,3.5 9.5,3.16421356 9.5,2.75 L9.5,0.75 C9.5,0.335786438 9.16421356,0 8.75,0 C8.33578644,0 8,0.335786438 8,0.75 L8,2.75 C8,3.16421356 8.33578644,3.5 8.75,3.5 Z" id="Path" fill-opacity="0.49762347"></path>
                <path d="M3.5,9.25 C3.5,8.83578644 3.16421356,8.5 2.75,8.5 L0.75,8.5 C0.335786438,8.5 0,8.83578644 0,9.25 C0,9.66421356 0.335786438,10 0.75,10 L2.75,10 C3.16421356,10 3.5,9.66421356 3.5,9.25 Z" id="Path" fill-opacity="0.49762347"></path>
                <path d="M23.358,20.654 L14.493,12.77 C14.2951328,12.5939092 13.9942721,12.6026807 13.807,12.79 L12.79,13.807 C12.6033043,13.9941461 12.5945413,14.29428 12.77,14.492 L20.655,23.358 C21.1228293,23.9050792 21.8579337,24.1435975 22.5578437,23.975413 C23.2577536,23.8072284 23.8042284,23.2607536 23.972413,22.5608437 C24.1405975,21.8609337 23.9020792,21.1258293 23.355,20.658 L23.358,20.654 Z" id="Path"></path>
            </g>
        </g>
    </g>
</svg>