<?xml version="1.0" encoding="UTF-8"?>
<svg width="48px" height="48px" viewBox="0 0 48 48" version="1.1" xmlns="http://www.w3.org/2000/svg" xmlns:xlink="http://www.w3.org/1999/xlink">
    <title>engagement-grows</title>
    <g id="Icons" stroke="none" stroke-width="1" fill="none" fill-rule="evenodd">
        <g id="engagement-grows">
            <circle id="Oval" fill="#E6E6FA" cx="24" cy="24" r="24"></circle>
            <g id="streamline-icon-phone-action-heart@24x24" transform="translate(16.000000, 12.000000)" fill="#4443FF" fill-rule="nonzero">
                <path d="M10.386,7.533 C9.58774348,7.39669785 8.77314111,7.65790796 8.203,8.233 L8.003,8.433 L7.803,8.233 C6.82214228,7.24772401 5.22827599,7.24414228 4.243,8.225 C3.25772401,9.20585772 3.25414228,10.799724 4.235,11.785 L7.645,15.342 C7.73930571,15.4404093 7.86969901,15.4960535 8.006,15.4960535 C8.14230099,15.4960535 8.27269429,15.4404093 8.367,15.342 L11.767,11.793 C12.5335869,11.0273306 12.723393,9.85665819 12.238,8.888 C11.8781224,8.16172198 11.1871374,7.65616873 10.386,7.533 L10.386,7.533 Z" id="Path"></path>
                <path d="M13,0 L3,0 C1.34314575,0 -8.8817842e-16,1.34314575 -8.8817842e-16,3 L-8.8817842e-16,21 C-8.8817842e-16,22.6568542 1.34314575,24 3,24 L13,24 C14.6568542,24 16,22.6568542 16,21 L16,3 C16,1.34314575 14.6568542,0 13,0 Z M14,19 C14,19.2761424 13.7761424,19.5 13.5,19.5 L2.5,19.5 C2.22385763,19.5 2,19.2761424 2,19 L2,3.5 C2,3.22385763 2.22385763,3 2.5,3 L13.5,3 C13.7761424,3 14,3.22385763 14,3.5 L14,19 Z" id="Shape" fill-opacity="0.497377622"></path>
            </g>
        </g>
    </g>
</svg>