<?xml version="1.0" encoding="UTF-8"?>
<svg width="48px" height="48px" viewBox="0 0 48 48" version="1.1" xmlns="http://www.w3.org/2000/svg" xmlns:xlink="http://www.w3.org/1999/xlink">
    <title>instagram-manager</title>
    <g id="Icons" stroke="none" stroke-width="1" fill="none" fill-rule="evenodd">
        <g id="instagram-manager">
            <circle id="Oval" fill="#E6E6FA" cx="24" cy="24" r="24"></circle>
            <g id="streamline-icon-force-touch-double-tap@24x24" transform="translate(13.000000, 11.000000)" fill="#4443FF" fill-rule="nonzero">
                <path d="M7.251,19.5 L3.489,19.5 C3.21285763,19.5 2.989,19.2761424 2.989,19 L2.989,3.5 C2.989,3.22385763 3.21285763,3 3.489,3 L14.489,3 C14.7651424,3 14.989,3.22385763 14.989,3.5 L14.989,6.52 C14.989578,6.60412049 15.0319295,6.682452 15.102,6.729 C15.6366533,7.08099156 16.1245405,7.49932462 16.554,7.974 C16.6233308,8.05027995 16.732372,8.07618695 16.8286036,8.03924286 C16.9248352,8.00229876 16.9885263,7.91007845 16.989,7.807 L16.989,3 C16.989,1.34314575 15.6458542,0 13.989,0 L3.989,0 C2.33214575,0 0.989,1.34314575 0.989,3 L0.989,21 C0.989,22.6568542 2.33214575,24 3.989,24 L10.739,24 C10.8770712,24 10.989,23.8880712 10.989,23.75 L10.989,20.75 C10.9890691,20.6149936 10.8819373,20.5043202 10.747,20.5 C9.51696492,20.460496 8.31586675,20.1169325 7.251,19.5 Z" id="Path" fill-opacity="0.504862325"></path>
                <path d="M9.788,18.881 C10.1440906,18.9685232 10.5195238,18.8541333 10.7663119,18.5829203 C11.0130999,18.3117074 11.0916558,17.9271763 10.9710145,17.5809012 C10.8503731,17.234626 10.5498865,16.9821524 10.188,16.923 C8.33172775,16.5415919 6.99783805,14.909954 6.99307391,13.0149089 C6.98830977,11.1198638 8.3139788,9.48153975 10.1683099,9.09080323 C12.022641,8.70006672 13.8966804,9.6641622 14.657,11.4 C14.792572,11.7384517 15.1016005,11.9762964 15.46348,12.0207098 C15.8253595,12.0651231 16.1827315,11.9090655 16.3961233,11.6134419 C16.6095152,11.3178184 16.6451038,10.9294859 16.489,10.6 C15.3488719,7.9953201 12.5371169,6.54850948 9.75497136,7.1349527 C6.97282583,7.72139592 4.98429625,10.1800495 4.9925057,13.023319 C5.00076611,15.8665886 7.00350416,18.3136823 9.789,18.884 L9.788,18.881 Z" id="Path" fill-opacity="0.504862325"></path>
                <path d="M16.7,14.233 L16.405,14.528 C16.3582689,14.5749604 16.2947501,14.6013619 16.2285,14.6013619 C16.1622499,14.6013619 16.0987311,14.5749604 16.052,14.528 L13.752,12.228 C13.0360181,11.5158639 11.9619085,11.3044064 11.0294228,11.6920125 C10.0969372,12.0796185 9.48921046,12.9901644 9.48898702,14 C9.48685416,14.6633922 9.75090394,15.2999215 10.222,15.767 L13.65,19.196 C12.5540933,19.4145585 11.784667,20.4043171 11.8431374,21.5202743 C11.9016079,22.6362316 12.7702538,23.5401636 13.883,23.643 L17.745,24 C18.1052906,24.0415682 18.4598465,23.8848027 18.6715566,23.5903268 C18.8832667,23.2958509 18.9189412,22.9098293 18.7647844,22.5815415 C18.6106276,22.2532536 18.2908065,22.034165 17.929,22.009 L14.066,21.653 C13.9298392,21.6387797 13.8299375,21.5184537 13.841,21.382 C13.8425033,21.3143045 13.8731336,21.2505472 13.9250415,21.2070672 C13.9769494,21.1635871 14.0450896,21.1446104 14.112,21.155 C14.7324128,21.1380538 15.3513859,21.0863057 15.966,21 C16.3515633,20.9647489 16.6821325,20.7101008 16.8146003,20.3462959 C16.9470681,19.9824911 16.8576281,19.5749102 16.585,19.3 L11.636,14.35 C11.4465139,14.1538106 11.4492238,13.8419576 11.6420907,13.6490907 C11.8349576,13.4562238 12.1468106,13.4535139 12.343,13.643 L15.524,16.825 C15.9144999,17.2153819 16.5475001,17.2153819 16.938,16.825 L18.117,15.647 C19.0402865,14.7652179 20.4937135,14.7652179 21.417,15.647 L23.3,17.533 L23.3,17.533 C23.6907415,17.9234653 24.3240347,17.9232414 24.7145,17.5325 C25.1049653,17.1417585 25.1047414,16.5084653 24.714,16.118 L22.827,14.233 C22.0153101,13.4186201 20.9128065,12.9608795 19.763,12.9608795 C18.6131935,12.9608795 17.5106899,13.4186201 16.699,14.233 L16.7,14.233 Z" id="Path"></path>
            </g>
        </g>
    </g>
</svg>