<?xml version="1.0" encoding="UTF-8"?>
<svg width="48px" height="48px" viewBox="0 0 48 48" version="1.1" xmlns="http://www.w3.org/2000/svg" xmlns:xlink="http://www.w3.org/1999/xlink">
    <title>how</title>
    <g id="Icons" stroke="none" stroke-width="1" fill="none" fill-rule="evenodd">
        <g id="how" transform="translate(0.000000, 0.000000)">
            <circle id="Oval" fill="#FFF7ED" cx="24" cy="24" r="24"></circle>
            <g id="streamline-icon-seo-search-settings@24x24" transform="translate(11.000000, 11.000000)" fill="#FFB544" fill-rule="nonzero">
                <path d="M20.345,17.517 C20.2618291,17.4333775 20.2480968,17.3031287 20.312,17.204 C23.2362391,12.6936165 22.2850199,6.70357188 18.1073743,3.32096773 C13.9297287,-0.0616364262 7.87284662,0.254008158 4.06943385,4.05253222 C0.266021082,7.85105629 -0.0574134398,13.9075274 3.31981474,18.0895202 C6.69704292,22.2715129 12.6858591,23.2304355 17.2,20.312 C17.2992632,20.2479626 17.4298021,20.2621425 17.513,20.346 L21.582,24.414 C22.0841489,24.9339132 22.8277558,25.1424252 23.5270146,24.9593943 C24.2262735,24.7763634 24.7723634,24.2302735 24.9553943,23.5310146 C25.1384252,22.8317558 24.9299132,22.0881489 24.41,21.586 L20.345,17.517 Z M11.5,20 C6.80557963,20 3,16.1944204 3,11.5 C3,6.80557963 6.80557963,3 11.5,3 C16.1944204,3 20,6.80557963 20,11.5 C19.9950395,16.1923641 16.1923641,19.9950395 11.5,20 Z" id="Shape"></path>
                <path d="M16.167,10.017 C16.4977329,9.66102591 16.5582194,9.13120838 16.3162306,8.70984962 C16.0742417,8.28849086 15.5861399,8.07373086 15.112,8.18 L13.893,8.463 C13.4710143,8.56041119 13.0458339,8.31370159 12.921,7.899 L12.555,6.699 C12.4169687,6.23137243 11.9875738,5.91040809 11.5,5.91040809 C11.0124262,5.91040809 10.5830313,6.23137243 10.445,6.699 L10.079,7.9 C9.95460053,8.31455902 9.52973358,8.56134065 9.108,8.464 L7.889,8.18 C7.41486008,8.07373086 6.92675827,8.28849086 6.68476943,8.70984962 C6.4427806,9.13120838 6.50326711,9.66102591 6.834,10.017 L7.687,10.937 C7.981134,11.2550925 7.981134,11.7459075 7.687,12.064 L6.834,12.984 C6.50326711,13.3399741 6.4427806,13.8697916 6.68476943,14.2911504 C6.92675827,14.7125091 7.41486008,14.9272691 7.889,14.821 L9.108,14.538 C9.52973358,14.4406593 9.95460053,14.687441 10.079,15.102 L10.445,16.302 C10.5830313,16.7696276 11.0124262,17.0905919 11.5,17.0905919 C11.9875738,17.0905919 12.4169687,16.7696276 12.555,16.302 L12.921,15.102 C13.0458339,14.6872984 13.4710143,14.4405888 13.893,14.538 L15.112,14.821 C15.5861399,14.9272691 16.0742417,14.7125091 16.3162306,14.2911504 C16.5582194,13.8697916 16.4977329,13.3399741 16.167,12.984 L15.314,12.064 C15.0188969,11.7462875 15.0188969,11.2547125 15.314,10.937 L16.167,10.017 Z M11.5,12.7420004 C10.8140623,12.7420004 10.258,12.1859377 10.258,11.5 C10.258,10.8140623 10.8140623,10.258 11.5,10.258 C12.1859377,10.258 12.7420004,10.8140623 12.7420004,11.5 C12.7422656,11.8294802 12.6114977,12.1455421 12.3785199,12.3785199 C12.1455421,12.6114977 11.8294802,12.7422656 11.5,12.7420004 L11.5,12.7420004 Z" id="Shape"></path>
            </g>
        </g>
    </g>
</svg>