<?xml version="1.0" encoding="UTF-8"?>
<svg width="48px" height="48px" viewBox="0 0 48 48" version="1.1" xmlns="http://www.w3.org/2000/svg" xmlns:xlink="http://www.w3.org/1999/xlink">
    <title>improvements</title>
    <g id="Icons" stroke="none" stroke-width="1" fill="none" fill-rule="evenodd">
        <g id="improvements">
            <circle id="Oval" fill="#E7F9F0" cx="24" cy="24" r="24"></circle>
            <g id="streamline-icon-performance-increase-1@24x24" transform="translate(13.000000, 13.000000)" fill="#0FC46D" fill-rule="nonzero">
                <path d="M0.25,20.75 L3.75,20.75 C3.81638566,20.7502671 3.88012947,20.7240137 3.9270716,20.6770716 C3.97401373,20.6301295 4.00026715,20.5663857 3.99999798,20.5 L3.99999798,18.25 C3.99999798,17.9738576 3.77614237,17.75 3.49999798,17.75 L0.499997981,17.75 C0.223857625,17.75 -2.01904174e-06,17.9738576 -2.01904174e-06,18.25 L-2.01904174e-06,20.5 C-0.000267148761,20.5663857 0.0259862651,20.6301295 0.0729283953,20.6770716 C0.119870526,20.7240137 0.18361434,20.7502671 0.25,20.75 L0.25,20.75 Z" id="Path" opacity="0.497442336"></path>
                <path d="M6.49999798,12.75 C6.22385763,12.75 5.99999798,12.9738576 5.99999798,13.25 L5.99999798,20.5 C5.99973285,20.5663857 6.02598627,20.6301295 6.0729284,20.6770716 C6.11987053,20.7240137 6.18361434,20.7502671 6.25,20.75 L9.75,20.75 C9.81638566,20.7502671 9.88012947,20.7240137 9.9270716,20.6770716 C9.97401373,20.6301295 10.0002671,20.5663857 9.99999798,20.5 L9.99999798,13.25 C9.99999798,12.9738576 9.77614237,12.75 9.49999798,12.75 L6.49999798,12.75 Z" id="Path" opacity="0.497442336"></path>
                <path d="M12.499998,14.75 C12.2238576,14.75 11.999998,14.9738576 11.999998,15.25 L11.999998,20.5 C11.9997329,20.5663857 12.0259863,20.6301295 12.0729284,20.6770716 C12.1198705,20.7240137 12.1836143,20.7502671 12.25,20.75 L15.75,20.75 C15.8163857,20.7502671 15.8801295,20.7240137 15.9270716,20.6770716 C15.9740137,20.6301295 16.0002671,20.5663857 15.999998,20.5 L15.999998,15.25 C15.999998,14.9738576 15.7761424,14.75 15.499998,14.75 L12.499998,14.75 Z" id="Path" opacity="0.497442336"></path>
                <path d="M18.499998,7.75 C18.2238576,7.75 17.999998,7.97385763 17.999998,8.25 L17.999998,20.5 C17.9997329,20.5663857 18.0259863,20.6301295 18.0729284,20.6770716 C18.1198705,20.7240137 18.1836143,20.7502671 18.25,20.75 L21.75,20.75 C21.8163857,20.7502671 21.8801295,20.7240137 21.9270716,20.6770716 C21.9740137,20.6301295 22.0002671,20.5663857 21.999998,20.5 L21.999998,8.25 C21.999998,7.97385763 21.7761424,7.75 21.499998,7.75 L18.499998,7.75 Z" id="Path" opacity="0.497442336"></path>
                <path d="M19.108,4.174 C19.1760344,4.17276333 19.2416773,4.19909263 19.29,4.247 L20.146,5.104 C20.2399507,5.19771395 20.3673011,5.250237 20.5,5.24999919 C20.5655705,5.25026724 20.630525,5.23734435 20.691,5.212 C20.8779915,5.13470757 21,4.9523362 21,4.74999919 L21,0.749999194 C21,0.473857625 20.7761424,0.249999194 20.5,0.249999194 L16.5,0.249999194 C16.2974911,0.249637676 16.1147615,0.371462874 16.0372157,0.558536715 C15.9596699,0.745610556 16.0026232,0.960985807 16.146,1.104 L17.167,2.125 C17.2621965,2.21960037 17.2652924,2.37262673 17.174,2.471 L13.96,5.956 C13.759616,6.17057162 13.4525702,6.24870033 13.174,6.156 L9.452,4.916 C8.38535884,4.55548797 7.2079434,4.77679811 6.345,5.5 L1.2,9.79 C0.669530519,10.2318278 0.597672233,11.0200305 1.03950002,11.5505 C1.48132782,12.0809695 2.2695305,12.1528278 2.8,11.711 L7.945,7.423 C8.14491198,7.25853958 8.41514345,7.20796553 8.661,7.289 L12.383,8.529 C13.595191,8.9335118 14.9319354,8.59081702 15.8,7.653 L18.934,4.253 C18.9795675,4.20510832 19.0419526,4.17678403 19.108,4.174 Z" id="Path"></path>
            </g>
        </g>
    </g>
</svg>