<?xml version="1.0" encoding="UTF-8"?>
<svg width="554px" height="332px" viewBox="0 0 554 332" version="1.1" xmlns="http://www.w3.org/2000/svg" xmlns:xlink="http://www.w3.org/1999/xlink">
    <!-- Generator: Sketch 64 (93537) - https://sketch.com -->
    <title>Instagram Growth Chart</title>
    <desc>Created with Sketch.</desc>
    <defs>
        <linearGradient x1="50%" y1="0.990513393%" x2="50%" y2="100%" id="linearGradient-1">
            <stop stop-color="#4443FF" offset="0%"></stop>
            <stop stop-color="#4A43FB" stop-opacity="0" offset="100%"></stop>
        </linearGradient>
    </defs>
    <g id="App" stroke="none" stroke-width="1" fill="none" fill-rule="evenodd">
        <g id="Account-General-v2" transform="translate(-351.000000, -271.000000)">
            <g id="chart" transform="translate(352.000000, 272.000000)">
                <path d="M0,281.530655 C30.8630808,281.530655 29.2712887,239.011704 60.1343694,239.011704 C90.9974502,239.011704 90.9974502,181.465556 121.860531,181.465556 C152.723612,181.465556 152.723612,224.960768 183.586693,224.960768 C214.449773,224.960768 214.449773,178.824809 245.312854,178.824809 C276.175935,178.824809 276.175935,110.452781 307.039016,110.452781 C337.902096,110.452781 337.902096,51.8674957 368.765177,51.8674957 C399.628258,51.8674957 399.628258,40.117515 430.491339,40.117515 C461.35442,40.117515 461.35442,4.6030382 492.2175,4.6030382 C523.080581,4.6030382 521.136919,-2.84217094e-13 552,-2.84217094e-13" id="line_1-copy-3" stroke="#4443FF" stroke-width="2" stroke-linecap="round"></path>
                <path d="M0,282.26726 C30.6666667,282.26726 30.6666667,239.637061 61.3333333,239.637061 C92,239.637061 92,181.940347 122.666667,181.940347 C153.333333,181.940347 153.333333,225.549361 184,225.549361 C214.666667,225.549361 214.666667,179.292691 245.333333,179.292691 C276,179.292691 276,110.741772 306.666667,110.741772 C337.333333,110.741772 337.333333,52.0032032 368,52.0032032 C398.666667,52.0032032 398.666667,40.2224795 429.333333,40.2224795 C460,40.2224795 460,4.61508171 490.666667,4.61508171 C521.333333,4.61508171 521.333333,-7.38964445e-13 552,-7.38964445e-13 L552,331.212536 L0,331.212536 L0,282.26726 Z" id="line_1-copy-2" fill-opacity="0.2" fill="url(#linearGradient-1)"></path>
            </g>
        </g>
    </g>
</svg>