<?xml version="1.0" encoding="UTF-8"?>
<svg width="48px" height="48px" viewBox="0 0 48 48" version="1.1" xmlns="http://www.w3.org/2000/svg" xmlns:xlink="http://www.w3.org/1999/xlink">
    <title>more-followers</title>
    <g id="Icons" stroke="none" stroke-width="1" fill="none" fill-rule="evenodd">
        <g id="more-followers">
            <circle id="Oval" fill="#FFECED" cx="24" cy="24" r="24"></circle>
            <g id="streamline-icon-multiple-users-add@24x24-(1)" transform="translate(12.000000, 12.000000)" fill="#FF4350" fill-rule="nonzero">
                <path d="M14.471,8.4 L14.071,8.259 C13.996658,8.23249442 13.9391981,8.17243956 13.916,8.097 C13.8414079,7.77674009 13.8369732,7.44413483 13.903,7.122 C13.9132407,7.08481605 13.9320811,7.05056094 13.958,7.022 C14.8289227,6.06057104 15.2588406,4.77915467 15.144,3.487 C15.2179157,2.60083471 14.9220738,1.72355321 14.3266056,1.06312144 C13.7311374,0.402689662 12.8890622,0.0179109943 12,-8.66658595e-06 C11.5343349,-0.00112033991 11.0748277,0.106394768 10.658,0.314 C10.5930086,0.345338749 10.5447262,0.403228775 10.5255633,0.47279016 C10.5064004,0.542351545 10.5182258,0.616800195 10.558,0.677 C11.1129163,1.50785086 11.4061908,2.48589695 11.4,3.485 C11.4686897,4.75868581 11.1470289,6.02300088 10.478,7.109 C10.4360108,7.17253543 10.4252718,7.2517455 10.4488284,7.32416737 C10.472385,7.39658924 10.527668,7.4543244 10.599,7.481 C13.599,8.602 14.252,9.481 14.439,9.869 C14.4948961,9.98466688 14.6293577,10.0391433 14.75,9.995 C15.2477077,9.8118569 15.762661,9.67951691 16.287,9.6 C16.3974451,9.58328376 16.4833988,9.49532822 16.4975682,9.38452759 C16.5117377,9.27372697 16.4506842,9.16697176 16.348,9.123 C15.8,8.89 15.173,8.657 14.471,8.4 Z" id="Path" fill-opacity="0.49770542"></path>
                <path d="M13.22,10.774 C13.27401,10.7349857 13.31005,10.6758801 13.32,10.61 C13.3312583,10.543189 13.3150288,10.4746641 13.275,10.42 C12.389,9.22 8.812,8.166 9.068,8.257 C8.99669651,8.23024573 8.94147653,8.17244882 8.918,8.1 C8.84102409,7.77850128 8.83488218,7.44410861 8.9,7.12 C8.91024075,7.08281605 8.92908105,7.04856094 8.955,7.02 C9.82592273,6.05857104 10.2558406,4.77715467 10.141,3.485 C10.2143082,2.59967421 9.91860251,1.72339504 9.32385327,1.0635093 C8.72910402,0.403623555 7.88815749,0.0187651512 7,0 C6.1109646,0.0174046754 5.26870196,0.401673381 4.67286128,1.0617194 C4.0770206,1.72176541 3.78064967,2.59882474 3.854,3.485 C3.73566546,4.76815643 4.15872536,6.0424114 5.021,7 C5.04309632,7.02438939 5.06009586,7.0529486 5.071,7.084 C5.1520955,7.40693032 5.16300742,7.74349492 5.103,8.071 C5.08443268,8.15344278 5.02531786,8.22084121 4.946,8.25 L4.529,8.4 C2.522,9.137 1.072,9.67 0.618,10.577 C0.219148645,11.5003758 0.00902671468,12.4942049 0,13.5 C0,13.7761424 0.223857625,14 0.5,14 L10.163,14 C10.2568602,13.9997338 10.3427947,13.9473253 10.386,13.864 C11.0387149,12.6000571 12.0170768,11.5333182 13.22,10.774 Z" id="Path" fill-opacity="0.49770542"></path>
                <path d="M17.5,11 C13.9101491,11 11,13.9101491 11,17.5 C11,21.0898509 13.9101491,24 17.5,24 C21.0898509,24 24,21.0898509 24,17.5 C23.9955921,13.9119765 21.0880235,11.0044079 17.5,11 Z M22,17.5 C22,18.0522847 21.5522847,18.5 21,18.5 L18.75,18.5 C18.6119288,18.5 18.5,18.6119288 18.5,18.75 L18.5,21 C18.5,21.5522847 18.0522847,22 17.5,22 C16.9477153,22 16.5,21.5522847 16.5,21 L16.5,18.75 C16.5,18.6119288 16.3880712,18.5 16.25,18.5 L14,18.5 C13.4477153,18.5 13,18.0522847 13,17.5 C13,16.9477153 13.4477153,16.5 14,16.5 L16.25,16.5 C16.3880712,16.5 16.5,16.3880712 16.5,16.25 L16.5,14 C16.5,13.4477153 16.9477153,13 17.5,13 C18.0522847,13 18.5,13.4477153 18.5,14 L18.5,16.25 C18.5,16.3880712 18.6119288,16.5 18.75,16.5 L21,16.5 C21.5522847,16.5 22,16.9477153 22,17.5 Z" id="Shape"></path>
            </g>
        </g>
    </g>
</svg>