<?xml version="1.0" encoding="utf-8"?>
<!-- Generator: Adobe Illustrator 24.1.1, SVG Export Plug-In . SVG Version: 6.00 Build 0)  -->
<svg version="1.1" id="Layer_1" xmlns="http://www.w3.org/2000/svg" xmlns:xlink="http://www.w3.org/1999/xlink" x="0px" y="0px"
	 viewBox="0 0 24 24" style="enable-background:new 0 0 24 24;" xml:space="preserve">
<g>
	<path d="M12,0c1.5,0,3,0.3,4.5,0.9c3,1.2,5.3,3.5,6.6,6.4c2.6,6.1-0.3,13.1-6.3,15.7c-1.5,0.6-3.1,1-4.7,1C7.2,24,2.8,21.1,1,16.7
		c-0.1-0.1-0.1-0.3,0-0.4c0-0.1,0.1-0.2,0.3-0.3c0.1,0,0.1,0,0.2,0c0.2,0,0.4,0.1,0.5,0.3C3.6,20.4,7.6,23,12,23
		c1.5,0,2.9-0.3,4.3-0.9c2.7-1.1,4.8-3.3,5.9-6c1.1-2.7,1.1-5.7-0.1-8.4c-1.1-2.7-3.3-4.8-6-5.9C14.8,1.3,13.4,1,12,1
		c-1.5,0-2.9,0.3-4.3,0.9C5.1,3,3,5.1,1.9,7.7C1.8,7.9,1.6,8,1.4,8C1.4,8,1.3,8,1.2,8C1.1,7.9,1,7.8,1,7.7c0-0.1,0-0.3,0-0.4
		C2.2,4.4,4.4,2.2,7.3,1C8.8,0.3,10.4,0,12,0z"/>
	<path d="M12.5,7.5c0.1,0,0.3,0.1,0.4,0.1l4,4c0,0,0.1,0.1,0.1,0.2c0,0.1,0,0.3,0,0.4c0,0.1-0.1,0.1-0.1,0.2l-4,4
		c-0.1,0.1-0.2,0.1-0.4,0.1s-0.3-0.1-0.4-0.1S12,16.1,12,16s0.1-0.3,0.1-0.4l3.1-3.1H0.5C0.2,12.5,0,12.3,0,12s0.2-0.5,0.5-0.5h14.8
		l-3.1-3.1C12.1,8.3,12,8.1,12,8c0-0.1,0.1-0.3,0.1-0.4S12.4,7.5,12.5,7.5z"/>
</g>
</svg>
