<svg xmlns="http://www.w3.org/2000/svg" width="399.761" height="115.36" viewBox="0 0 773.532 223.219">
  <defs>
    <style>
      .cls-1 {
        fill-rule: evenodd;
      }
    </style>
  </defs>
  <path id="nitreo" class="cls-1" d="M73.452,111.683a33.352,33.352,0,0,1,22.76-8.382q13.107,0,19.051,8.077t3.607,22.4l-15.342,91.644h43.284l16.663-99.366q4.572-27.33-7.62-43.028t-36.477-15.7q-17.476,0-30.989,7.925A54.941,54.941,0,0,0,67.457,96.9H65.729L70.2,69.366H29.05L3.039,225.426H46.221L61.259,135.2Q63.9,120.066,73.452,111.683ZM216.774,225.426l26.011-156.06H199.5L173.49,225.426h43.284ZM242.785,42.543q7.622-6.5,8.637-15.443a18.314,18.314,0,0,0-5.131-15.444q-6.148-6.4-15.8-6.4a26,26,0,0,0-17.171,6.4A23.467,23.467,0,0,0,204.582,27.1a18.091,18.091,0,0,0,5.08,15.443,20.932,20.932,0,0,0,15.85,6.5A25.886,25.886,0,0,0,242.785,42.543Zm80.936,26.823,6.2-37.389H286.635l-6.2,37.389H259.2l-5.487,32.513h21.338L261.64,183.16q-4.065,22.86,8.331,34.087t36.274,10.313a75.463,75.463,0,0,0,14.529-1.575q6.1-1.371,9.754-2.489L328.9,191.288q-1.628.3-4.776,0.864a35.391,35.391,0,0,1-6.2.558q-6.5,0-10.11-3.149t-2.082-12.091l12.6-75.591H347.8l5.385-32.513H323.721Zm67.729,156.06,14.529-88.292a38.969,38.969,0,0,1,38.509-32.411,79.341,79.341,0,0,1,9.906.661,40.338,40.338,0,0,1,8.078,1.676l6.5-38.507a56.929,56.929,0,0,0-13.31-1.422A43.565,43.565,0,0,0,431.228,74.6q-11.329,7.468-18.035,22h-1.625l4.572-27.229H374.177l-26.011,156.06H391.45ZM571.3,215.469q20.576-13,28.907-34.747l-39.525-2.642a31.806,31.806,0,0,1-13.463,13.513,41.35,41.35,0,0,1-19.559,4.572q-16.563,0-24.385-9.093T498.4,159.588l0.2-1.117h106.28l1.93-11.888q4.47-26.517-2.337-44.146T582.53,76.072q-15.141-8.737-35.867-8.738-22.963,0-41.658,10.16a87.82,87.82,0,0,0-31.041,28.347q-12.345,18.189-16.409,42.266-6.2,37.088,10.872,58.726t53.14,21.641Q550.727,228.474,571.3,215.469ZM511,115.8a43.861,43.861,0,0,1,13.818-11.735,36.02,36.02,0,0,1,17.476-4.42q14.022,0,21.236,9.043t4.877,22.962H503.481A38.83,38.83,0,0,1,511,115.8ZM727.936,218.467a86.126,86.126,0,0,0,30.99-27.992q12.243-17.984,16.1-41.86,3.963-24.282-2.387-42.571a54.256,54.256,0,0,0-22-28.5Q735,67.334,711.222,67.334q-23.574,0-42.37,10.008a85.576,85.576,0,0,0-30.99,27.991q-12.192,17.984-16.053,41.962-3.963,24.182,2.387,42.469a54.315,54.315,0,0,0,21.947,28.5q15.6,10.212,39.474,10.211Q709.188,228.474,727.936,218.467ZM668.09,181.738q-5.943-13.208-2.692-33.326,3.353-20.623,14.174-34.341t27.281-13.716q16.053,0,21.947,13.259t2.641,33.477q-3.455,20.628-14.275,34.24t-27.18,13.615Q674.034,194.946,668.09,181.738Z" transform="translate(-3.031 -5.25)"/>
</svg>
