<?xml version="1.0" encoding="UTF-8"?>
<svg width="48px" height="48px" viewBox="0 0 48 48" version="1.1" xmlns="http://www.w3.org/2000/svg" xmlns:xlink="http://www.w3.org/1999/xlink">
    <title>testimonials</title>
    <g id="Icons" stroke="none" stroke-width="1" fill="none" fill-rule="evenodd">
        <g id="testimonials">
            <circle id="Oval" fill="#E6E6FA" cx="24" cy="24" r="24"></circle>
            <g id="streamline-icon-social-profile-bubble@24x24-(1)" transform="translate(12.000000, 15.000000)" fill="#4443FF" fill-rule="nonzero">
                <path d="M16.25,15.7499908 C20.5302068,15.7499908 23.9999948,12.2802068 23.9999948,8 C23.9999948,3.71979319 20.5302068,0.24999079 16.25,0.24999079 L7.75,0.24999079 C4.85721075,0.245548071 2.20364061,1.85543087 0.871362754,4.42317018 C-0.460915103,6.9909095 -0.249267453,10.0874176 1.42,12.45 C1.51559276,12.5851919 1.53806009,12.7589392 1.48,12.914 L0.048,16.736 C-0.0385069419,16.9660272 -0.00683124507,17.2238417 0.132785668,17.4260868 C0.272402581,17.6283319 0.502244995,17.749345 0.748,17.7499908 C0.815508018,17.7499908 0.882730768,17.7412412 0.948,17.724 L8.12,15.768 C8.16297284,15.7560064 8.20738489,15.7499502 8.252,15.7499908 L16.25,15.7499908 Z M14,6 C14,5.58578644 14.3357864,5.25 14.75,5.25 L18.25,5.25 C18.6642136,5.25 19,5.58578644 19,6 C19,6.41421356 18.6642136,6.75 18.25,6.75 L14.75,6.75 C14.3357864,6.75 14,6.41421356 14,6 L14,6 Z M13,9.5 C13,9.08578644 13.3357864,8.75 13.75,8.75 L19.25,8.75 C19.6642136,8.75 20,9.08578644 20,9.5 C20,9.91421356 19.6642136,10.25 19.25,10.25 L13.75,10.25 C13.3357864,10.25 13,9.91421356 13,9.5 L13,9.5 Z M7.987,3.99999975 C8.80936262,3.99959549 9.55097505,4.49466349 9.86595993,5.25431142 C10.1809448,6.01395935 10.0072569,6.88855287 9.42590168,7.47019416 C8.84454649,8.05183545 7.97003854,8.22595366 7.21023573,7.91134257 C6.45043292,7.59673148 5.955,6.85536272 5.955,6.033 C5.955,4.91059551 6.86459565,4.00055209 7.987,3.99999975 L7.987,3.99999975 Z M7.987,8.805 C9.4274525,8.80518671 10.7034513,9.73421405 11.146,11.105 C11.1678528,11.17156 11.1563866,11.2445667 11.1151819,11.3012232 C11.0739772,11.3578797 11.008055,11.391282 10.938,11.3910018 L5.08,11.3910018 C4.99936166,11.3907079 4.92377407,11.3516906 4.87682876,11.2861256 C4.82990731,11.2205607 4.81729784,11.1364331 4.843,11.06 C5.29997905,9.71262588 6.56423996,8.80584842 7.987,8.805 L7.987,8.805 Z" id="Shape"></path>
            </g>
        </g>
    </g>
</svg>