<?xml version="1.0" encoding="UTF-8"?>
<svg width="48px" height="48px" viewBox="0 0 48 48" version="1.1" xmlns="http://www.w3.org/2000/svg" xmlns:xlink="http://www.w3.org/1999/xlink">
    <title>white-listing</title>
    <g id="Icons" stroke="none" stroke-width="1" fill="none" fill-rule="evenodd">
        <g id="white-listing">
            <circle id="Oval" fill="#E6E6FA" cx="24" cy="24" r="24"></circle>
            <g id="streamline-icon-checklist-alternate@24x24" transform="translate(12.000000, 12.000000)" fill="#4443FF" fill-rule="nonzero">
                <path d="M21,0 L3,0 C1.34314575,0 0,1.34314575 0,3 L0,21 C0,22.6568542 1.34314575,24 3,24 L21,24 C22.6568542,24 24,22.6568542 24,21 L24,3 C24,1.34314575 22.6568542,0 21,0 Z M22,21 C22,21.5522847 21.5522847,22 21,22 L3,22 C2.44771525,22 2,21.5522847 2,21 L2,3 C2,2.44771525 2.44771525,2 3,2 L21,2 C21.5522847,2 22,2.44771525 22,3 L22,21 Z" id="Shape" fill-opacity="0.5"></path>
                <path d="M11.249,4.5 C10.6965672,4.08636472 9.91351759,4.19822895 9.499,4.75 L7.365,7.6 L6.883,7.119 C6.38938751,6.672249 5.63223709,6.69078114 5.16107209,7.1611462 C4.68990709,7.63151125 4.6700884,8.38862909 5.116,8.883 L6.616,10.383 C6.8740833,10.6355285 7.22797407,10.7654139 7.58814266,10.7397968 C7.94831125,10.7141797 8.28025625,10.5355141 8.5,10.249 L11.5,6.249 C11.9133142,5.69662661 11.8009766,4.91384394 11.249,4.5 Z" id="Path"></path>
                <path d="M11.249,13.5 C10.6965672,13.0863647 9.91351759,13.1982289 9.499,13.75 L7.365,16.6 L6.883,16.119 C6.56906473,15.7941443 6.1042742,15.6639567 5.66727054,15.7784748 C5.23026688,15.8929929 4.88905782,16.234395 4.774787,16.6714634 C4.66051617,17.1085318 4.79096672,17.5732486 5.116,17.887 L6.616,19.387 C6.87506989,19.6381654 7.22906877,19.7667415 7.58893878,19.7403816 C7.94880879,19.7140217 8.28029383,19.535235 8.5,19.249 L11.5,15.249 C11.9133142,14.6966266 11.8009766,13.9138439 11.249,13.5 L11.249,13.5 Z" id="Path"></path>
                <path d="M18.5,7.749 L14,7.749 C13.3096441,7.749 12.75,8.30864408 12.75,8.999 C12.75,9.68935592 13.3096441,10.249 14,10.249 L18.5,10.249 C19.1903559,10.249 19.75,9.68935594 19.75,8.999 C19.75,8.30864406 19.1903559,7.749 18.5,7.749 L18.5,7.749 Z" id="Path"></path>
                <path d="M18.5,15.749 L14,15.749 C13.3096441,15.749 12.75,16.3086441 12.75,16.999 C12.75,17.6893559 13.3096441,18.249 14,18.249 L18.5,18.249 C19.1903559,18.249 19.75,17.6893559 19.75,16.999 C19.75,16.3086441 19.1903559,15.749 18.5,15.749 L18.5,15.749 Z" id="Path"></path>
            </g>
        </g>
    </g>
</svg>