<?xml version="1.0" encoding="iso-8859-1"?>
<!-- Generator: Adobe Illustrator 22.1.0, SVG Export Plug-In . SVG Version: 6.00 Build 0)  -->
<svg version="1.1" xmlns="http://www.w3.org/2000/svg" xmlns:xlink="http://www.w3.org/1999/xlink" x="0px" y="0px"
	 viewBox="0 0 64 64" style="enable-background:new 0 0 64 64;" xml:space="preserve">
<g id="_x32_7">
	<circle style="fill:#F0F0F0;" cx="32" cy="32" r="32"/>
	<path d="M14.255,31.999L2.317,43.967c-1.495-3.695-2.316-7.738-2.316-11.968s0.82-8.268,2.316-11.962L14.255,31.999z"/>
	<path style="fill:#F2D041;" d="M20.149,31.999L4.242,47.929c-0.151-0.256-0.297-0.518-0.436-0.78
		c-0.076-0.151-0.157-0.297-0.233-0.448c-0.052-0.099-0.105-0.204-0.151-0.303c-0.093-0.175-0.18-0.349-0.262-0.524
		c-0.029-0.058-0.052-0.111-0.081-0.169c-0.111-0.239-0.221-0.477-0.332-0.721c-0.14-0.32-0.279-0.646-0.413-0.977
		c-0.006-0.012-0.012-0.029-0.017-0.041l11.939-11.968L2.317,20.037c0.14-0.343,0.279-0.687,0.431-1.018
		c0.134-0.303,0.273-0.599,0.413-0.896c0.047-0.099,0.099-0.198,0.145-0.297c0.116-0.239,0.239-0.477,0.361-0.71
		c0.029-0.052,0.052-0.105,0.081-0.151c0.111-0.215,0.227-0.425,0.349-0.634c0.047-0.087,0.093-0.175,0.145-0.262L20.149,31.999z"/>
	<path style="fill:#76AD4B;" d="M63.729,27.826H27.825L9.372,9.373c-1.989,1.988-3.716,4.237-5.128,6.691L20.149,32L4.243,47.934
		c1.412,2.454,3.14,4.704,5.129,6.693l18.453-18.453h35.904C63.907,34.808,64,33.415,64,32C64,30.585,63.907,29.192,63.729,27.826z"
		/>
	<path style="fill:#0460BA;" d="M12.517,57.385C17.913,61.532,24.668,64,32,64c14.785,0,27.226-10.028,30.898-23.652H29.554
		L12.517,57.385z"/>
	<path style="fill:#DD0534;" d="M62.898,23.652C59.226,10.028,46.785,0,32,0c-7.332,0-14.087,2.468-19.483,6.615l17.037,17.037
		L62.898,23.652L62.898,23.652z"/>
</g>
<g id="Layer_1">
</g>
</svg>
