<svg xmlns="http://www.w3.org/2000/svg" version="1.1" xmlns:xlink="http://www.w3.org/1999/xlink" xmlns:svgjs="http://svgjs.com/svgjs" viewBox="0 0 100 100" width="100" height="100"><g transform="matrix(4.166666666666667,0,0,4.166666666666667,0,0)"><path d="M9.928,3.932A9.709,9.709,0,0,0,.5,13.88v1.243a4.942,4.942,0,1,0,4.941-4.941,4.609,4.609,0,0,0-1.115.14.25.25,0,0,1-.277-.368A6.832,6.832,0,0,1,9.928,6.432a1.25,1.25,0,0,0,0-2.5Z" fill="#000000" stroke="none" stroke-linecap="round" stroke-linejoin="round" stroke-width="0"></path><path d="M22.25,6.432a1.25,1.25,0,0,0,0-2.5,9.71,9.71,0,0,0-9.428,9.948v1.243a4.942,4.942,0,1,0,4.942-4.941,4.611,4.611,0,0,0-1.116.14.249.249,0,0,1-.26-.092.252.252,0,0,1-.017-.276A6.832,6.832,0,0,1,22.25,6.432Z" fill="#000000" stroke="none" stroke-linecap="round" stroke-linejoin="round" stroke-width="0"></path></g></svg>