<svg xmlns="http://www.w3.org/2000/svg" version="1.1" xmlns:xlink="http://www.w3.org/1999/xlink" xmlns:svgjs="http://svgjs.com/svgjs" viewBox="0 0 140 140" width="140" height="140"><g transform="matrix(5.833333333333333,0,0,5.833333333333333,0,0)"><path d="M18.559,3.932a4.942,4.942,0,1,0,0,9.883,4.609,4.609,0,0,0,1.115-.141.25.25,0,0,1,.276.368,6.83,6.83,0,0,1-5.878,3.523,1.25,1.25,0,0,0,0,2.5,9.71,9.71,0,0,0,9.428-9.95V8.873A4.947,4.947,0,0,0,18.559,3.932Z" fill="#ffffff" stroke="none" stroke-linecap="round" stroke-linejoin="round" stroke-width="0"></path><path d="M6.236,3.932a4.942,4.942,0,0,0,0,9.883,4.6,4.6,0,0,0,1.115-.141.25.25,0,0,1,.277.368A6.83,6.83,0,0,1,1.75,17.565a1.25,1.25,0,0,0,0,2.5,9.711,9.711,0,0,0,9.428-9.95V8.873A4.947,4.947,0,0,0,6.236,3.932Z" fill="#ffffff" stroke="none" stroke-linecap="round" stroke-linejoin="round" stroke-width="0"></path></g></svg>